<svg role="img" aria-label="Amiga, no estás sola" xmlns="http://www.w3.org/2000/svg" xmlns:xlink="http://www.w3.org/1999/xlink" viewBox="0 0 612 612"><defs><linearGradient id="linear-gradient" x1="109.07" y1="349.52" x2="255.16" y2="297.08" gradientUnits="userSpaceOnUse"><stop offset="0" stop-color="#fec65b"></stop><stop offset=".12" stop-color="#fab85b"></stop><stop offset=".35" stop-color="#f0945b"></stop><stop offset=".6" stop-color="#e3665c"></stop><stop offset=".66" stop-color="#de645c"></stop><stop offset=".72" stop-color="#d05f5e"></stop><stop offset=".79" stop-color="#b95662"></stop><stop offset=".86" stop-color="#994a67"></stop><stop offset=".94" stop-color="#703b6d"></stop><stop offset="1" stop-color="#482c74"></stop></linearGradient><linearGradient id="linear-gradient-2" x1="96.83" y1="315.44" x2="242.92" y2="263" xlink:href="#linear-gradient"></linearGradient><linearGradient id="linear-gradient-3" x1="77.76" y1="262.32" x2="223.85" y2="209.87" xlink:href="#linear-gradient"></linearGradient><linearGradient id="linear-gradient-4" x1="121.09" y1="383" x2="267.17" y2="330.56" xlink:href="#linear-gradient"></linearGradient><linearGradient id="linear-gradient-5" x1="61.42" y1="216.79" x2="207.51" y2="164.35" xlink:href="#linear-gradient"></linearGradient><linearGradient id="linear-gradient-6" x1="131.37" y1="411.65" x2="277.46" y2="359.21" xlink:href="#linear-gradient"></linearGradient><linearGradient id="linear-gradient-7" x1="141.51" y1="439.9" x2="287.6" y2="387.46" xlink:href="#linear-gradient"></linearGradient><linearGradient id="linear-gradient-8" x1="147.59" y1="456.84" x2="293.68" y2="404.39" xlink:href="#linear-gradient"></linearGradient><linearGradient id="linear-gradient-9" x1="91.35" y1="300.17" x2="237.44" y2="247.72" xlink:href="#linear-gradient"></linearGradient><linearGradient id="linear-gradient-10" x1="466.24" y1="342.27" x2="371.35" y2="279.84" xlink:href="#linear-gradient"></linearGradient><linearGradient id="linear-gradient-11" x1="486.09" y1="312.11" x2="391.19" y2="249.68" xlink:href="#linear-gradient"></linearGradient><linearGradient id="linear-gradient-12" x1="516.65" y1="265.65" x2="421.76" y2="203.22" xlink:href="#linear-gradient"></linearGradient><linearGradient id="linear-gradient-13" x1="446.1" y1="372.89" x2="351.2" y2="310.46" xlink:href="#linear-gradient"></linearGradient><linearGradient id="linear-gradient-14" x1="541.61" y1="227.72" x2="446.72" y2="165.29" xlink:href="#linear-gradient"></linearGradient><linearGradient id="linear-gradient-15" x1="430.43" y1="396.71" x2="335.57" y2="334.31" xlink:href="#linear-gradient"></linearGradient><linearGradient id="linear-gradient-16" x1="412.01" y1="424.7" x2="317.12" y2="362.27" xlink:href="#linear-gradient"></linearGradient><linearGradient id="linear-gradient-17" x1="395.26" y1="450.16" x2="300.37" y2="387.73" xlink:href="#linear-gradient"></linearGradient><linearGradient id="linear-gradient-18" x1="487.94" y1="309.29" x2="393.05" y2="246.86" xlink:href="#linear-gradient"></linearGradient><linearGradient id="linear-gradient-19" x1="332.23" y1="289.94" x2="283.84" y2="308.06" xlink:href="#linear-gradient"></linearGradient><linearGradient id="linear-gradient-20" x1="320.43" y1="249.72" x2="313.92" y2="298.68" xlink:href="#linear-gradient"></linearGradient><linearGradient id="linear-gradient-21" x1="305.88" y1="267.62" x2="305.03" y2="307.25" xlink:href="#linear-gradient"></linearGradient><linearGradient id="linear-gradient-22" x1="266.65" y1="578.25" x2="265.9" y2="419.75" xlink:href="#linear-gradient"></linearGradient><linearGradient id="linear-gradient-23" x1="279.93" y1="578.19" x2="279.17" y2="419.69" xlink:href="#linear-gradient"></linearGradient><linearGradient id="linear-gradient-24" x1="251.78" y1="618.22" x2="251.03" y2="459.72" gradientTransform="translate(64.47 -27.03) rotate(-3.23)" xlink:href="#linear-gradient"></linearGradient><linearGradient id="linear-gradient-25" x1="311.68" y1="578.04" x2="310.93" y2="419.54" xlink:href="#linear-gradient"></linearGradient><linearGradient id="linear-gradient-26" x1="341.3" y1="577.89" x2="340.55" y2="419.4" xlink:href="#linear-gradient"></linearGradient></defs><circle fill="#FAF5EE" cx="306" cy="306" r="306"></circle><path fill="#482C74" d="M305.65,484.13c-72.45,0-138.68-42.61-168.74-108.56l8.39-3.82c28.56,62.67,91.5,103.16,160.35,103.16s131.79-40.49,160.35-103.16l8.39,3.82c-30.06,65.95-96.29,108.56-168.74,108.56Z"></path><path fill="#482C74" d="M249.52,127.85c.21-.95.53-1.87,1.01-2.7l-.97-3.07c-53.26,16.89-95.64,56.41-116.26,108.41l8.57,3.4c19.1-48.17,57.85-85.04,106.67-101.74.02-1.49.35-2.97.99-4.3Z"></path><path fill="#482C74" d="M476.88,227.73c-18.86-45.37-55.42-81.84-101-100.52l-1.59,3.89c.8,1.78,1.04,3.82.75,5.76,43.51,18.68,78.08,54.52,95.08,98.76l3.09-1.19c.23-2.64,1.46-5.17,3.68-6.71Z"></path><path fill="#482C74" d="M210.24,281.8c-.3-3.84-.16-7.66.76-11.44,1.9-7.8,7-13,14-16.52,6.6-3.33,13.79-4.68,20.94-6.07,9.16-1.78,18.08-4.25,26.3-8.78,9.21-5.07,16.72-11.86,21.15-21.6,4.56-10.02,4.67-20.52,3.39-31.22-.35-2.92-.63-5.87-.5-8.83-.11-3.87.86-5.68,2.59-8.94,1.08-2.28,2.71-3.82,4.33-5.32,2.1-1.93,4.47-3.53,6.96-4.91,3.01-1.66,6.07-3.22,9.08-4.87,2.99-1.65,5.95-3.36,9.01-4.92,10.91-7.37,25.76-22.77,23.26-32.9-6.66,17.56-25.15,30.1-36.66,36.04-4.96,2.56-9.98,5.06-14.2,8.8-3.07,2.72-5.43,5.94-6.6,9.93-1.08,4.06-1.44,5.8-1.44,5.8-.51,6.26.64,12.25.99,18.28.26,4.55-.06,9.01-1.08,13.4-2.96,12.79-10.95,21.64-22.23,27.77-9.3,5.05-19.46,7.49-29.76,9.46-6.28,1.2-12.46,2.76-18.17,5.79-7.95,4.23-13.41,10.4-15.26,19.44-1.44,7.03,3.12,11.62,3.12,11.62Z"></path><path fill="#482C74" d="M288.19,270.89c-2.55-2.22-5.52-3.45-8.54-4.45-7.58-2.52-15.18-4.91-22.77-7.36-6.21-2.01-12.45-3.69-18.97-3.5-.46.01-.96-.13-1.69.48,3.09.44,5.84,1.03,8.64,1.83,3.19,1.02,6.3,1.97,9.37,3.05,7.65,2.68,15.32,5.29,23.07,7.6,4.51,1.34,9.11,2.52,13.03,5.69.07.06.21,0,.49,0-.61-1.53-1.61-2.46-2.62-3.34Z"></path><path fill="#482C74" d="M368.13,245.71c-.91.31-1.82.62-2.71.96-9.22,3.48-17.56,8.23-25.18,13.96-2.81,2.11-5.06,4.66-5.31,8.26.04,1.16-.21,2.25.6,3.28.37-.34.33-.66.32-.96-.05-1.43.48-2.7,1.33-3.89,1.1-1.54,2.45-2.89,3.98-4.09,2.33-1.82,4.74-3.55,7.26-5.16,6.33-4.06,12.62-8.15,19.4-11.61.28-.14.7-.22.55-.66-.09-.03-.19-.1-.25-.08Z"></path><path fill="#482C74" d="M376.6,176.36c-2.54-1.57-7.34.24-7.42,2.52.36.11.6-.14.98-.36,2.04-1.03,4.24-1.33,6.45-2.17Z"></path><path fill="#482C74" d="M332.1,88.63c-18.25-2.27-37.09,2.8-50.27,15.2-10.67,9.65-18.17,21.55-27.26,32.76-5.21,6.37-11.49,12.04-17.52,17.51-5.69,5.39-12,10.96-15.66,17.84-4.06,7.42.68,14.8,5.04,21.04,5.17,7.2,11.04,13.42,5.37,22.4,4.55-9.04-1.56-14.53-7.05-21.13-4.47-5.6-9.67-12.9-7.51-20.58,1.38-5.26,4.95-9.77,8.37-13.63,4.17-4.65,8.58-8.94,13.15-13.13,10.83-9.48,18.56-21.16,27.65-32.36,11-13.25,23.63-23.85,41.1-26.65,8.09-1.34,16.64-1.27,24.59.73h0Z"></path><path fill="#482C74" d="M409.68,248.66c-8.11-14.22-20.62-20.99-37.1-19.45-4.74.44-9.43,1.41-14.2,1.6-5.27.22-10.53.24-15.57-1.69-4.54-1.73-8.8-3.86-11.09-8.5-1.25-2.55-1.63-5.16.09-7.64,1.6-2.32,3.98-3.01,6.67-2.6,1.64.26,3.2.87,4.73,1.56,4.2,1.89,8.43,3.8,13.13,4.09,3.8.23,8.29-1.37,9.11-6.31.31-1.86.09-3.74-.26-5.6-.65-3.53-.34-4.07,2.94-5.39,2.66-1.06,3.64-3.04,2.87-5.77-.18-.67-.41-1.31-.62-2.01,1.3-.72,2.59-1.26,3.28-2.61.86-1.67-.62-2.56-1.12-3.76-.74-1.81.16-3.5,2.06-3.94,1.9-.43,3.73-1.04,5.26-2.31,1.55-1.3,2.61-2.82,2.46-4.98-.12-1.57-1.28-2.42-2.14-3.48-5.71-7.11-8.76-14.74-4.86-23.83.84-1.98,1.33-4.1,1.16-6.28-.15-1.95.45-3.62,1.24-5.38,2.78-6.19,4.18-12.63,2.64-19.41-.75-3.32-2.01-6.39-5.57-7.74-.48-.19-.63-.7-.82-1.15-2.81-6.61-7.5-11.13-14.49-13.13-.55-.16-1.14-.17-1.58-.69-1.87-2.15-4.31-3.53-6.78-4.85-7.69-4.12-15.97-6.11-24.59-6.91-10.24-.96-20.26.11-30.01,3.32-13.61,4.48-25.19,12.09-34.76,22.78-5.57,6.21-10.16,13.07-13.29,20.8-1.04,2.56-1.91,5.13-2.62,7.72,0,0,4.27-3.38,10.83-15.04,2.01-3.27,4.34-6.43,6.98-9.5,11.55-13.45,26.04-22.15,43.49-25.45,16.07-3.04,31.38-.55,45.64,7.68.23.13.41.33.78.66-2.94,1.27-5.55,2.8-7.93,4.69-5.75,4.55-10.59,10.04-15.72,15.25-8.34,8.45-16.98,16.58-26.66,23.5-13.41,9.56-27.62,17.59-43.2,23.02-8.16,2.7-13.3,3.73-16.5,6.13-6.01,3.72-8.84,9.38-9.39,16.2-.61,7.72,1.75,14.61,6.52,20.69.27.34.44.9,1.1.71.19-.51-.2-.82-.39-1.17-3.18-6.15-5.09-12.57-4.49-19.61,2-14.45,15.67-17.63,24.13-20.23,19.18-6.66,36.41-16.82,52.16-29.58,8.64-7.01,16.45-14.92,24.08-23.01,3.76-3.99,7.62-7.87,12.07-11.12,4.72-3.43,8.18-3.61,13.21-.54,3.28,2.01,5.82,4.68,7.57,8.26-1.13.51-2.14.97-3.15,1.42-4,2.42-6.56,6.01-9.7,9.32-6.32,8.09-5.28,14.75-7.11,22.41-4.07,11.26-10.21,21.21-17.63,30.45,8.07-5.82,13.4-13.77,17.62-22.78,2.57,2.34,5.02,4.41,8.07,5.61,3.16,1.24,6.3,1.25,9.83.38-1.08-.8-2.11-.74-2.96-1.16-4.24-2.05-8.27-4.56-12.83-5.92-1.21-.35-1.4-1.14-.76-2.24.4-.69.68-1.46.96-2.2.95-2.44,1.32-2.6,3.92-1.96,2.75.7,5.18,2.02,7.58,3.47,1.29.77,2.63,1.44,3.97,2.14,1.03.55,1.45.14,1.54-.95.13-1.84-.52-3.3-2.02-4.3-2.81-1.84-5.76-3.33-9.16-3.72-1.3-.15-2.6-.31-3.91-.47.61-2.88,1.49-5.58,1.67-8.32.2-3.04,1.34-5.38,3.49-7.42,2.31-2.21,4.24-4.83,6.82-7.03.53.86,1.04,1.6,1.44,2.41,2.74,5.42,4.45,11.18,4.87,17.22.29,4.26.53,8.59-1.2,12.71-1.66,3.96-2.1,8.09-1.28,12.3,1.1,5.68,3.62,10.64,7.62,14.83,1.24,1.28,1.3,2.03-.09,3.26-1.08.95-2.43,1.4-3.72,1.9-2.25.88-3.16,2.57-3.34,4.85-.09,1.04.4,1.97.57,3.04-1.39.34-2.73.68-4.19,1.05-2.77,1.02-5.43,1.91-8.38,1.49.12,1.12.87,1.3,1.47,1.55,1.75.72,3.58,1.19,5.48,1.02,1.18-.11,1.81.39,2.18,1.43.41,1.16.7,2.23-.45,3.21-1.4,1.19-2.9,1.1-4.52.49-.13,1.13,1.08,1.24,1.29,2.13-1.8,1.87-2.2,4.25-2.02,6.81.06.96.03,1.94,0,2.9-.1,2.76-1.71,4.34-4.46,4.44-1.86.06-3.63-.29-5.33-.99-10.46-4.31-20.44-9.54-29.68-16.1-6.53-4.64-11.28-10.67-13.26-18.61-.08-.3-.17-.65-.58-.69-.3.44-.22.94-.13,1.4,1.04,6.16,3.68,11.52,7.99,16.05,4.38,4.61,9.71,7.92,15.12,11.15,1.02.6,2.18,1.03,3.14,2.11-9.43,2.88-9.32,10.23-7.25,14.93.88,1.98,2.14,3.49,3.49,4.87,5.75,5.83,13.12,7.67,20.9,8.25,7.17.54,14.19-1.17,21.29-1.76,6.42-.54,12.61.12,18.42,3.27,8.61,4.67,14.11,11.91,17.55,20.86,2.24,5.84,4.25,19.14,4.25,19.14,2.88-11.99-1.14-22.86-3.86-27.63ZM376.27,131.47c-.25-1.57-.49-3.09-.74-4.61-.52-2.38-.73-4.44-.06-6.58.65-2.06.34-4.25.4-6.42,2.05,2.33,2.25,11.96.41,17.61M372.73,117.71c-.39-.7-.71-1.3-1.03-1.9-.35-.68-.61-1.15-.87-1.61-.47-.87-1.03-1.57-1.88-1.78-.49-.12-1.08-.08-1.8.2.44-.45.88-.86,1.32-1.21.96-.75,1.92-1.19,2.92-.82,1.4.54,1.16,2.46,1.31,3.86.11,1.03.02,2.1.02,3.27Z"></path><path fill="#482C74" d="M300.7,383.22c-2.09-4.17-4.19-8.41-5.99-12.71-5.71-12.63-9.07-25.58-3.7-38.99.76-2.18,1.6-4.45,2.18-6.84.59-2.36,1.52-4.89,1.03-7.56-.83-4.48-3.66-8.46-7.71-10.55-.88-.45-2.39-1.07-2.99-1.8-1.32-1.88-3.46-1.84-5.21-.74-2.05,1.15-4.08,2.33-6.09,3.53h0c2.2-.79,4.39-1.6,6.55-2.43.9-.31,1.9-.66,2.64-.07.4.32.61.8.93,1.21.85,1.05,1.99,1.62,3.03,2.29,3.08,2,5.12,5.47,5.55,9.07.19,1.71-.66,3.71-1.36,6.1-.61,2.11-1.47,4.2-2.35,6.38-3.9,8.9-4.05,19.45-1.17,28.67,2.89,9.01,7.84,17.1,11.94,25.57,3.78,7.79,5.9,13.45,6.04,16.56,0,0,7.69-12.05,9.58-15.73,3.27-6.38,7.31-14.18,9.82-20.18,5.33-12.15,5.82-26.74.13-38.84-2.26-5.02-5.03-9.64-8.25-14.03-1.93-2.49-4.12-4.92-4.16-8.28h0c-.69,3.3,1.16,6.47,2.78,9.2,2.47,4.62,4.75,9.5,6.53,14.36,8.07,22.2.21,36.65-8.78,55.61-2.62,5.52-6.72,11.07-6.72,11.07,0,0-.99-4.35-4.25-10.86Z"></path><path fill="url(#linear-gradient-4)" d="M78.83,313.58c.93.18,1.96.09,2.9.66,1.67,1.14,3.07,2.31,4.7,3.42,3.88,2.73,7.93,5.27,12.13,7.42,9.99,5.32,20.71,8.9,31.64,11.64,7.3,1.78,14.54,3.35,22,3.96,7.47.69,14.84,1.24,22.27.69,5.25-.32,9.5.14,14.17-.36,5.19-.67,10.52-.61,15.64-1.37,13.13-1.04,26.53-1.26,39.6,1.07,3.85.68,7.68,1.64,11.23,3.19-16.24-2.24-32.1.41-48.33,2.48-4.42,1.04-9.79,1.61-14.29,2.17-1.92.26-3.96.65-5.9.79-8.39.26-15.43,1.02-23.49.74-23.57-1-47.34-7.85-66.75-21.43-3.98-2.9-7.73-6.05-11.11-9.6-1.36-1.32-2.63-2.92-3.89-4.27-.63-.62-1.63-.8-2.52-1.2h0Z"></path><path fill="url(#linear-gradient-17)" d="M65.55,264.3c20.77,23.5,49.6,36.88,79.29,44.78,15.04,3.87,30.31,5.84,45.75,7.93,15.52,2.29,31.51,4.51,46.13,10.6-7.77-1.41-15.54-1.93-23.36-2.52-23.65-1.66-47.3-1.56-70.64-7.67-30.46-8.15-61.46-24.73-77.15-53.11h0Z"></path><path fill="url(#linear-gradient-19)" d="M61.84,187.07c1.46,3.68,1.06,7.92,2.06,11.67.9,3.82,1.95,7.56,3.37,11.17,14.39,36.77,49.11,59.82,84.52,74.18,14.51,6.32,29.79,10.55,44.43,16.66-15.75-2.67-31.58-5.23-46.78-10.32-30.64-9.67-60.54-28.11-77.01-56.62-6.22-10.56-10.26-22.52-10.89-34.75-.34-4.1.82-7.95.29-12h0Z"></path><path fill="url(#linear-gradient-26)" d="M260.78,357.12c-12.52,2.56-23.82,7.99-35.78,12.45-5.98,2.24-12.07,4.3-18.3,6.03-14.05,3.98-28.85,5.66-43.44,4.74-11.48-.38-22.87-3.69-33.17-8.51-5.83-2.76-11.44-6.18-16.21-10.52,5.72,2.75,11.61,4.9,17.69,6.56,10.46,2.88,20.98,4.83,31.78,4.57,7.78-.05,15.43-.32,23.13-1.46,12.2-1.47,24.25-4.64,36.47-7.84,12.2-3.14,25.02-7.08,37.82-6.03h0Z"></path><path fill="url(#linear-gradient-9)" d="M92.42,136.4c-5.76,22.5-5.8,47.66,4.87,68.59,7.73,15.53,20.82,28.38,34.28,39.51,4.62,3.96,9.47,7.48,14.29,11.22-5.75-2.12-11.4-4.67-16.7-7.74-16.23-9.21-31.1-22.2-39.57-39.15-11.39-22.73-9.99-50.73,2.82-72.44h0Z"></path><path fill="url(#linear-gradient-6)" d="M268.06,368.55c-30.5,31.88-82.9,41.33-122.19,20.87,2.71.37,5.37.84,8.03,1.19,7.89,1.06,15.87,1.74,23.78,1.86,32.47.87,61.98-8.53,90.38-23.92h0Z"></path><path fill="url(#linear-gradient-18)" d="M277.72,389.04c-14.49,20.24-40.64,30.79-65.22,29.15-8.39-.9-16.01-3.22-23.69-5.92,1.73-.21,4.31-.4,6.09-.43,3.46-.13,8.45-.16,11.95-.21,9.53-.01,19.02-1.85,28.25-4.18,15.23-3.77,28.89-10.45,42.62-18.42h0Z"></path><path fill="url(#linear-gradient-21)" d="M241.95,429.58c5.73-3.36,11.36-6.03,17-9.37,4.12-2.55,8.35-5.26,12.23-8.19,7.08-5.44,13.46-11.38,19.63-17.95-1.02,9.76-7.12,18.22-14.31,24.57-.64.49-3.57,2.75-4.16,3.15-3.19,2.08-6.61,3.87-10.15,5.25-6.5,2.35-13.36,3.43-20.24,2.53h0Z"></path><path fill="url(#linear-gradient-20)" d="M275.93,361.92c-1.48-3.83-3.96-7.24-6.4-10.5-4.15-5.42-8.94-10.33-13.81-15.09-17.79-16.88-38.21-31.16-58.54-44.82-3.45-2.2-10.4-6.67-13.82-8.91-36.17-21.96-62.83-59.91-67.96-102.19-.67-5.53-1.06-11.11-.73-16.64,1.32,10.88,4.16,21.58,7.93,31.84,11.86,33.14,35.62,61.27,65.36,79.78,0,0,6.95,4.58,6.95,4.58,23.03,15.36,45.54,32.59,63.86,53.46,6.93,8.59,14.41,17.56,17.16,28.47h0Z"></path><path fill="url(#linear-gradient-25)" d="M533.82,313.58c-.89.4-1.88.58-2.52,1.2-1.26,1.35-2.53,2.95-3.89,4.27-3.38,3.55-7.13,6.7-11.11,9.6-19.41,13.58-43.17,20.44-66.75,21.43-8.06.28-15.1-.48-23.49-.74-3.43-.33-8.1-1.15-11.56-1.49-3.76-.34-7.48-1.42-11.32-1.81-15.4-2.02-30.26-4.25-45.64-2.14,7.16-3.11,15.13-3.84,22.81-4.67,7.72-.66,15.67-.22,23.29.07,1.9.01,4.11.22,6.07.52,5.53.56,11.28.84,16.88,1.38,3.52.16,7.38-.08,11.59.17,3.67.27,7.3.28,11.03.12,11.18-.4,22.36-1.93,33.24-4.77,10.94-2.74,21.65-6.32,31.64-11.64,4.2-2.15,8.25-4.69,12.13-7.42,1.63-1.11,3.03-2.28,4.7-3.42.94-.57,1.97-.48,2.9-.66h0Z"></path><path fill="url(#linear-gradient-8)" d="M547.1,264.3c-15.7,28.38-46.69,44.96-77.15,53.11-23.34,6.11-46.99,6.01-70.64,7.67-7.83.59-15.59,1.11-23.36,2.52,14.62-6.09,30.61-8.31,46.13-10.6,15.44-2.09,30.71-4.05,45.75-7.93,29.69-7.9,58.52-21.28,79.29-44.78h0Z"></path><path fill="url(#linear-gradient)" d="M550.81,187.07c-.54,4.05.63,7.9.29,12-1.02,20.6-11.72,39.54-25.64,54.34-19.66,20.86-46.62,33.2-73.8,40.43-11.63,3.02-23.42,4.88-35.23,6.91,7.34-3.16,14.94-5.62,22.4-8.28,21.98-7.68,44.06-16.95,63.1-30.14,18.72-13.17,35.13-30.82,43.46-52.43,1.42-3.6,2.47-7.35,3.37-11.17,1-3.75.6-7.99,2.06-11.67h0Z"></path><path fill="url(#linear-gradient-10)" d="M351.87,357.12c12.8-1.06,25.62,2.89,37.82,6.03,12.22,3.2,24.27,6.37,36.47,7.84,7.69,1.13,15.36,1.4,23.13,1.46,10.8.26,21.32-1.69,31.78-4.57,6.08-1.67,11.97-3.82,17.69-6.56-4.77,4.35-10.38,7.77-16.21,10.52-10.29,4.83-21.69,8.13-33.17,8.51-14.59.92-29.39-.76-43.44-4.74-6.23-1.73-12.32-3.79-18.3-6.03-11.96-4.46-23.26-9.89-35.78-12.45h0Z"></path><path fill="url(#linear-gradient-16)" d="M520.22,136.4c12.82,21.71,14.21,49.7,2.82,72.44-8.47,16.95-23.34,29.94-39.57,39.15-5.3,3.08-10.95,5.62-16.7,7.74,4.82-3.73,9.67-7.26,14.29-11.22,13.46-11.13,26.55-23.99,34.28-39.51,10.66-20.93,10.63-46.09,4.87-68.59h0Z"></path><path fill="url(#linear-gradient-7)" d="M344.59,368.55c28.4,15.39,57.91,24.79,90.38,23.92,7.91-.12,15.89-.8,23.78-1.86,2.66-.35,5.32-.82,8.03-1.19-9.62,5.16-20.35,8.28-31.28,9.8-32.74,4.6-67.94-6.71-90.91-30.67h0Z"></path><path fill="url(#linear-gradient-13)" d="M334.93,389.04c13.74,7.97,27.4,14.66,42.62,18.42,9.23,2.33,18.72,4.16,28.25,4.18,3.51.05,8.47.08,11.95.21,1.74.03,4.36.21,6.09.43-7.68,2.69-15.3,5.02-23.69,5.91-24.58,1.64-50.73-8.92-65.22-29.15h0Z"></path><path fill="url(#linear-gradient-2)" d="M370.7,429.58c-6.88.89-13.74-.19-20.24-2.53-3.54-1.38-6.96-3.17-10.15-5.25-.59-.39-3.54-2.68-4.16-3.15-7.19-6.34-13.29-14.81-14.31-24.57,6.17,6.57,12.56,12.51,19.63,17.95,3.88,2.93,8.1,5.64,12.23,8.19,5.64,3.33,11.27,6.01,17,9.37h0Z"></path><path fill="url(#linear-gradient-24)" d="M336.72,361.92c2.75-10.91,10.23-19.88,17.16-28.47,18.32-20.87,40.84-38.11,63.86-53.46,0,0,6.95-4.58,6.95-4.58,29.74-18.51,53.51-46.65,65.36-79.78,3.76-10.26,6.61-20.96,7.93-31.84.33,5.54-.06,11.11-.73,16.64-5.13,42.28-31.78,80.23-67.96,102.19-3.44,2.24-10.36,6.7-13.82,8.91-20.33,13.66-40.75,27.94-58.54,44.82-4.87,4.76-9.66,9.67-13.81,15.09-2.44,3.26-4.92,6.67-6.4,10.5h0Z"></path><path fill="url(#linear-gradient-3)" d="M281.49,303.85c.35-8.08,11.64-12.71,18.75-10.71,1.14.32,2.28.85,3.24,1.48,6.29,4.73,10.21,5.37,17.85,3.41,4.64-1.29,9.76-2.16,13.64-5.28-1.13,8.39-16.27,16.39-24.33,14.56-1.55-.19-3.14-.67-4.65-1.3-3.74-1.53-5.78-3.96-8.06-5.63-5.03-2.09-12.78-1.13-16.45,3.47h0Z"></path><path fill="url(#linear-gradient-15)" d="M304.35,291.79c10-1.27,16.06-3.59,15.87-8.68-.34-9.18-13.59-9.81-15.66-26.6-2.08-16.79,12.08-19.43,12.08-19.43,0,0-10.19,8.3-2.97,20,7.22,11.7,20.14,13.02,18.26,25.1-1.89,12.08-14.55,15.53-22.08,13.02-3.4-1.13-5.49-3.4-5.49-3.4Z"></path><path fill="url(#linear-gradient-5)" d="M300.06,255.73c-1.42,6.35,2.45,16.07,12.41,23.1,9.95,7.03-10.43,12.97-14.95,7.88,0,0,11.69.38,6.83-4.9-4.85-5.29-8.84-9.44-7.98-15.29.86-5.85,3.69-10.78,3.69-10.78Z"></path><path fill="url(#linear-gradient-14)" d="M296.37,403.7c-4.79,17.11-14.82,32.46-26.07,46.08-7.07,9.09-15.88,17.21-22.13,26.71-8.72,13.9-13.46,33.63-2.31,47.62-17.15-14.82-10.01-42.62,2.86-58.04,17.11-19.99,35.68-38.56,47.66-62.37h0Z"></path><path fill="url(#linear-gradient-11)" d="M302.05,408.69c1.17,28.07-13.97,53.97-26.55,77.86-8.93,16.99-18.65,37.33-9.35,56.01,2.78,6.02,6.99,11.45,11.58,16.62-5.66-3.96-10.8-8.87-14.72-14.88-12.76-19.4-3.82-42.69,6.01-61.12,12.92-24.34,28.24-46.89,33.04-74.48h0Z"></path><path fill="url(#linear-gradient-22)" d="M312.52,411.98c3.06,16.67,12.05,31.74,22.81,44.56,5.46,6.55,11.86,12.06,17.98,17.98,6.23,6.31,11.62,13.58,15.56,21.67,12.61,24.75,8.14,57.38-17.77,71.42-7.86,4.2-16.63,6.17-25.23,6.15,8.43-1.63,16.54-4.51,23.33-9.26,21.62-14.55,24.26-43.11,13.11-65.12-5.23-11.35-14.08-20.54-22.91-29.28-14.55-15.84-26.49-36.15-26.88-58.12h0Z"></path><path fill="url(#linear-gradient-12)" d="M296.37,507.47c9.42,17.04,27.51,3.84,22.72-12.21-2.84-10.02-8.22-18.66-11.4-28.79-4.7-15.51-3.35-32.25.11-47.69,1.19,15.56,1.36,30.91,6.54,45.48,1.65,4.68,3.89,9.22,6.03,14.08,2.17,4.94,4.17,10.13,5.35,15.45,1.94,8.51-1.13,19.22-9.47,23.43-8.58,4.69-18.15-.46-19.88-9.75h0Z"></path><path fill="url(#linear-gradient-23)" d="M316.71,404.17c2.74,5.47,6.07,10.3,9.61,15.04,10.63,14.3,23.15,26.61,38.16,36.42-22.17-4.28-45.32-28.97-47.76-51.45h0Z"></path><path fill="#482C74" d="M122.32,384.39c23.52,44.85,61.8,81.08,107.88,102.1-48.33-16.26-88.95-54.76-107.88-102.1h0Z"></path><path fill="#482C74" d="M246.6,107.96c-46.15,16.44-86.24,47.6-113.76,88.11,23.21-43.5,65.82-76.56,113.76-88.11h0Z"></path><path fill="#482C74" d="M478.99,201.38c-22.75-35.1-54.16-63.95-91.05-83.67,39.29,15.1,72.66,45.81,91.05,83.67h0Z"></path><path fill="#482C74" d="M377.59,486.85c46.49-20.89,85.12-57.32,108.79-102.46-19.04,47.65-60.09,86.3-108.79,102.46h0Z"></path><path fill="#482C74" d="M249.55,122.08c2.8-.8,3.56-.45,3.56-.45l-3.56,6.55h-3.7l3.7-6.11Z"></path><polygon fill="#482C74" points="375.89 127.21 375.05 126.77 375.21 127.77 375.72 128.05 375.89 127.21"></polygon></svg>